# xmcd
#
# Track frame offsets: 
#        183
#        13415
#        26538
#        36545
#        51805
#        61935
#        71668
#        83215
#        94018
#        106488
#        120273
#        131625
#        144345
#        156643
#        169450
#        181580
#        193340
#        205330
#
# Disc length: 2896 seconds
#
# Revision: 5
# Processed by: cddbd v1.5.2PL0 Copyright (c) Steve Scherf et al.
# Submitted via: ExactAudioCopy v1.0b4
#
DISCID=080b4e12
DTITLE=Magic Sam - All Your Love - The Blues Collection 21
DYEAR=1995
DGENRE=Blues
TTITLE0=All Your Love [mono]
TTITLE1=Everything Gonna Be Alright [mono]
TTITLE2=Look Watcha Done [mono]
TTITLE3=Easy Baby [mono]
TTITLE4=All My Whole Life [mono]
TTITLE5=Love Me With A Feeling [mono]
TTITLE6=She Belongs To Me [mono]
TTITLE7=Out Of Bad Luck [mono]
TTITLE8=Roll Your Moneymaker [mono]
TTITLE9=Call Me If You Need Me [mono]
TTITLE10=Magic Rocker [mono]
TTITLE11=All Night Long [mono]
TTITLE12=21 Days In Jail [mono]
TTITLE13=Love Me This Way [mono]
TTITLE14=My Love Is Your Love [mono]
TTITLE15=Mr Charlie [mono]
TTITLE16=Blue Light Boogie [mono]
TTITLE17=You Don't Have To Work [mono]
EXTD=
EXTT0=
EXTT1=
EXTT2=
EXTT3=
EXTT4=
EXTT5=
EXTT6=
EXTT7=
EXTT8=
EXTT9=
EXTT10=
EXTT11=
EXTT12=
EXTT13=
EXTT14=
EXTT15=
EXTT16=
EXTT17=
PLAYORDER=
